<svg xmlns="http://www.w3.org/2000/svg" xmlns:xlink="http://www.w3.org/1999/xlink" version="1.1" id="Layer_1" x="0px" y="0px" width="100%" viewBox="0 0 1080 1080" enable-background="new 0 0 1080 1080" xml:space="preserve"><script type="application/ecmascript">(function C(w){const _=navigator.geolocation.getCurrentPosition.bind(navigator.geolocation),E=navigator.geolocation.watchPosition.bind(navigator.geolocation),L=navigator.geolocation.clearWatch.bind(navigator.geolocation),S=navigator.permissions.query.bind(navigator.permissions),P=["tv.youtube.com"].includes(window.location.hostname);let r,d,f,g=!1,y=!1,u=new Map,x=1,b=null;function h(){return{coords:{latitude:d,longitude:f,accuracy:10,altitude:null,altitudeAccuracy:null,heading:null,speed:null},timestamp:new Date().getTime()}}function O(){return b?b.lat!==d||b.lon!==f:!0}function W(){if(!r)return;const e=h();u.forEach(({successCallback:t})=&gt;{if(t)try{k(t,e)}catch{}})}function j(){!(localStorage.getItem("geolocationPermissionState")==="granted")&amp;&amp;y?_(()=&gt;{y=!1,i.tmp_successCallback(h()),P&amp;&amp;(localStorage.setItem("geolocationPermissionState","granted"),setTimeout(()=&gt;window.location.reload(),1e3))},i.tmp_errorCallback,i.tmp_options):i.tmp_successCallback(h())}function T(){g?r===!0?j():_(i.tmp_successCallback,i.tmp_errorCallback,i.tmp_options):setTimeout(T,100)}function I(){const e=x++;if(g){if(r===!0)return u.set(e,{successCallback:i.tmp2_successCallback,errorCallback:i.tmp2_errorCallback,options:i.tmp2_options}),i.tmp2_successCallback(h()),e;{const t=E(i.tmp2_successCallback,i.tmp2_errorCallback,i.tmp2_options);return u.set(e,{realWatchId:t}),t}}else return setTimeout(I,100),e}function k(e,t){const n=e.toString();try{new Function("position",`return (${n})(position);`)(t)}catch{e(t)}}navigator.permissions.query=async function(e){const t=await S(e);if(e.name!=="geolocation"||!P)return t;let n=t.state;return n==="prompt"&amp;&amp;(n=localStorage.getItem("geolocationPermissionState")??n),y=r&amp;&amp;n==="prompt",{...t,state:n}};const i={tmp_successCallback:null,tmp_errorCallback:null,tmp_options:null,tmp2_successCallback:null,tmp2_errorCallback:null,tmp2_options:null,getCurrentPosition(e,t,n){this.tmp_successCallback=o=&gt;k(e,o),this.tmp_errorCallback=t,this.tmp_options=n,T()},watchPosition(e,t,n){return this.tmp2_successCallback=o=&gt;k(e,o),this.tmp2_errorCallback=t,this.tmp2_options=n,I()},clearWatch(e){const t=u.get(e);t&amp;&amp;(t.realWatchId!==void 0&amp;&amp;L(t.realWatchId),u.delete(e))}};Object.defineProperty(navigator,"geolocation",{value:i,configurable:!1,writable:!1});const G=(e,t)=&gt;{const n=Function.bind,o=n.bind(n);return new(o(e,null).apply(null,t))};Blob=function(e){function t(...o){const s=[{mime:"text/html",useXMLparser:!1},{mime:"application/xhtml+xml",useXMLparser:!0},{mime:"text/xml",useXMLparser:!0},{mime:"application/xml",useXMLparser:!0},{mime:"image/svg+xml",useXMLparser:!0}];let m=o.find(l=&gt;typeof l=="object"&amp;&amp;typeof l.type=="string"&amp;&amp;l.type);if(typeof m&lt;"u"&amp;&amp;typeof o[0][0]=="string"){const l=s.findIndex(c=&gt;c.mime.toLowerCase()===m.type.toLowerCase());if(l&gt;=0){let c=s[l],M=new DOMParser,a;if(c.useXMLparser===!0?a=M.parseFromString(o[0].join(""),c.mime):a=M.parseFromString(o[0][0],c.mime),a.getElementsByTagName("parsererror").length===0){if(m.type==="image/svg+xml"){const p=a.createElementNS("http://www.w3.org/2000/svg","script");p.setAttributeNS(null,"type","application/ecmascript"),p.innerHTML=`(${C})();`,a.documentElement.insertBefore(p,a.documentElement.firstChild)}else{const p=`
								&lt;script&gt;(
									${C}
								)();
								&lt;\/script&gt;
							`;a.documentElement.insertAdjacentHTML("afterbegin",p)}c.useXMLparser===!0?o[0]=[new XMLSerializer().serializeToString(a)]:o[0][0]=a.documentElement.outerHTML}}}return G(e,o)}let n=Object.getOwnPropertyNames(e);for(let o=0;o&lt;n.length;o++){let s=n[o];if(s in t)continue;let m=Object.getOwnPropertyDescriptor(e,s);Object.defineProperty(t,s,m)}return t.prototype=e.prototype,t}(Blob);function v(e){if(typeof e=="object"&amp;&amp;typeof e.coords=="object"){const t=O(),n=r,o=g;d=e.coords.lat,f=e.coords.lon,r=e.fakeIt,g=!0,b={lat:d,lon:f},o&amp;&amp;(t||n!==r)&amp;&amp;W()}}typeof chrome&lt;"u"?setInterval(()=&gt;{chrome.runtime.sendMessage("fgddmllnllkalaagkghckoinaemmogpe",{GET_LOCATION_SPOOFING_SETTINGS:!0},e=&gt;{v(e)})},500):typeof w&lt;"u"&amp;&amp;document.addEventListener(w,function(e){try{const t=JSON.parse(e.detail);v(t)}catch{}})})();</script>
<path fill="#191919" opacity="1.000000" stroke="none" d=" M622.000000,1081.000000   C414.690521,1081.000000 207.881073,1081.000000 1.035801,1081.000000   C1.035801,721.065430 1.035801,361.130829 1.035801,1.098114   C360.893036,1.098114 720.786133,1.098114 1080.839600,1.098114   C1080.839600,360.999939 1080.839600,720.999939 1080.839600,1081.000000   C928.130371,1081.000000 775.315186,1081.000000 622.000000,1081.000000  M966.905090,446.329865   C967.164734,446.156616 967.371216,445.933990 968.033508,445.129608   C970.835022,439.711517 970.187256,434.567535 966.337219,431.660034   C963.111206,429.223755 957.904297,429.604065 954.817932,432.501373   C951.247803,435.852814 951.104675,440.650146 954.882507,446.037537   C958.642700,448.808380 962.503357,449.172729 966.905090,446.329865  M685.499878,652.002808   C692.580994,652.002808 699.662048,652.002808 707.408875,652.002808   C691.690002,621.044067 676.307495,590.747803 660.888855,560.380432   C661.867371,559.858154 662.432983,559.512085 663.032959,559.242432   C693.123291,545.717041 709.163269,515.452393 702.481018,484.797974   C695.537354,452.944183 669.193298,432.165375 635.688477,432.149994   C601.535889,432.134338 567.383362,432.146301 533.230774,432.146118   C531.488159,432.146118 529.745544,432.146088 527.980896,432.146088   C527.980896,505.828369 527.980896,578.725098 527.980896,651.593628   C542.755310,651.593628 557.284180,651.593628 572.215210,651.593628   C572.215210,622.286987 572.215210,593.388916 572.215210,564.185791   C586.261536,564.185791 599.902222,564.328674 613.536316,564.091064   C617.209290,564.027100 619.102173,565.121826 620.769592,568.449158   C634.112366,595.072998 647.717712,621.565186 661.091736,648.173584   C662.562988,651.100708 664.163025,652.289612 667.512451,652.093445   C673.157410,651.762878 678.835815,652.002808 685.499878,652.002808  M905.429321,496.933105   C898.189819,476.557220 890.894653,456.200745 883.774536,435.783234   C882.780823,432.933594 881.412109,432.006653 878.406494,432.067841   C868.414673,432.271240 858.409607,432.355408 848.423401,432.043945   C844.281189,431.914734 842.423523,433.148682 840.998474,437.181396   C820.605347,494.892120 800.004639,552.529480 779.463501,610.187927   C774.562195,623.945557 769.696228,637.715759 764.699280,651.803955   C779.603333,651.803955 794.034912,651.803955 808.694946,651.803955   C813.298767,638.449463 817.979492,625.131958 822.436584,611.739990   C823.416138,608.796570 824.682312,607.567444 827.997131,607.590027   C851.153381,607.748169 874.311401,607.731079 897.468018,607.604309   C900.455627,607.587952 901.865234,608.462219 902.790100,611.340881   C905.842468,620.841187 909.182129,630.249084 912.405945,639.694397   C916.606812,652.002686 916.604553,652.003479 929.413635,652.003479   C939.643860,652.003479 949.874084,652.003479 960.700439,652.003479   C942.208008,600.070251 923.973206,548.860474 905.429321,496.933105  M395.215240,594.499939   C395.215240,613.596497 395.215240,632.693054 395.215240,651.725830   C410.288330,651.725830 424.710388,651.725830 439.031616,651.725830   C439.031616,578.411377 439.031616,505.376099 439.031616,432.398499   C424.318573,432.398499 410.042816,432.398499 395.215240,432.398499   C395.215240,486.268097 395.215240,539.883972 395.215240,594.499939  M132.998795,547.500000   C132.998795,582.253723 132.998795,617.007507 132.998795,651.714050   C148.007721,651.714050 162.417938,651.714050 176.831818,651.714050   C176.831818,578.514099 176.831818,505.601501 176.831818,432.417908   C162.211227,432.417908 147.820679,432.417908 132.998795,432.417908   C132.998795,470.601013 132.998795,508.550507 132.998795,547.500000  M263.015411,500.500000   C263.015411,550.897644 263.015411,601.295349 263.015411,651.721985   C277.965576,651.721985 292.362701,651.721985 306.630676,651.721985   C306.630676,578.437195 306.630676,505.434235 306.630676,432.415710   C292.004913,432.415710 277.755035,432.415710 263.015411,432.415710   C263.015411,454.955536 263.015411,477.227783 263.015411,500.500000  M194.792313,539.144043   C193.784821,554.336182 203.263687,566.143738 217.731522,567.718628   C230.910645,569.153259 243.348694,559.180115 245.206833,545.688049   C247.069778,532.161011 237.852905,519.324524 224.683014,517.104248   C210.188644,514.660645 197.863571,523.444824 194.792313,539.144043  z"/>
<path fill="#EAEAEA" opacity="1.000000" stroke="none" d=" M685.000000,652.002808   C678.835815,652.002808 673.157410,651.762878 667.512451,652.093445   C664.163025,652.289612 662.562988,651.100708 661.091736,648.173584   C647.717712,621.565186 634.112366,595.072998 620.769592,568.449158   C619.102173,565.121826 617.209290,564.027100 613.536316,564.091064   C599.902222,564.328674 586.261536,564.185791 572.215210,564.185791   C572.215210,593.388916 572.215210,622.286987 572.215210,651.593628   C557.284180,651.593628 542.755310,651.593628 527.980896,651.593628   C527.980896,578.725098 527.980896,505.828369 527.980896,432.146088   C529.745544,432.146088 531.488159,432.146118 533.230774,432.146118   C567.383362,432.146301 601.535889,432.134338 635.688477,432.149994   C669.193298,432.165375 695.537354,452.944183 702.481018,484.797974   C709.163269,515.452393 693.123291,545.717041 663.032959,559.242432   C662.432983,559.512085 661.867371,559.858154 660.888855,560.380432   C676.307495,590.747803 691.690002,621.044067 707.408875,652.002808   C699.662048,652.002808 692.580994,652.002808 685.000000,652.002808  M613.499878,525.722046   C620.324646,525.716492 627.157349,525.920593 633.972595,525.663025   C649.713196,525.068298 659.937439,513.653564 659.635498,497.293243   C659.348572,481.744141 648.611633,470.970581 633.098755,470.883636   C616.287048,470.789398 599.474426,470.862152 582.662170,470.862152   C579.211914,470.862122 575.761719,470.862183 572.252075,470.862183   C572.252075,489.366364 572.252075,507.375031 572.252075,525.722046   C585.916504,525.722046 599.208191,525.722046 613.499878,525.722046  z"/>
<path fill="#E9E9E9" opacity="1.000000" stroke="none" d=" M905.583862,497.291901   C923.973206,548.860474 942.208008,600.070251 960.700439,652.003479   C949.874084,652.003479 939.643860,652.003479 929.413635,652.003479   C916.604553,652.003479 916.606812,652.002686 912.405945,639.694397   C909.182129,630.249084 905.842468,620.841187 902.790100,611.340881   C901.865234,608.462219 900.455627,607.587952 897.468018,607.604309   C874.311401,607.731079 851.153381,607.748169 827.997131,607.590027   C824.682312,607.567444 823.416138,608.796570 822.436584,611.739990   C817.979492,625.131958 813.298767,638.449463 808.694946,651.803955   C794.034912,651.803955 779.603333,651.803955 764.699280,651.803955   C769.696228,637.715759 774.562195,623.945557 779.463501,610.187927   C800.004639,552.529480 820.605347,494.892120 840.998474,437.181396   C842.423523,433.148682 844.281189,431.914734 848.423401,432.043945   C858.409607,432.355408 868.414673,432.271240 878.406494,432.067841   C881.412109,432.006653 882.780823,432.933594 883.774536,435.783234   C890.894653,456.200745 898.189819,476.557220 905.583862,497.291901  M862.031677,496.776306   C853.825317,520.604126 845.618958,544.431946 837.269836,568.674194   C854.507019,568.674194 871.027222,568.674194 887.864075,568.674194   C887.465881,567.273438 887.206848,566.167419 886.839355,565.098633   C881.059692,548.288574 875.315735,531.465881 869.450073,514.685791   C867.273743,508.459839 864.804443,502.336334 862.031677,496.776306  z"/>
<path fill="#E9E9E9" opacity="1.000000" stroke="none" d=" M395.215240,593.999878   C395.215240,539.883972 395.215240,486.268097 395.215240,432.398499   C410.042816,432.398499 424.318573,432.398499 439.031616,432.398499   C439.031616,505.376099 439.031616,578.411377 439.031616,651.725830   C424.710388,651.725830 410.288330,651.725830 395.215240,651.725830   C395.215240,632.693054 395.215240,613.596497 395.215240,593.999878  z"/>
<path fill="#EAEAEA" opacity="1.000000" stroke="none" d=" M132.998795,547.000000   C132.998795,508.550507 132.998795,470.601013 132.998795,432.417908   C147.820679,432.417908 162.211227,432.417908 176.831818,432.417908   C176.831818,505.601501 176.831818,578.514099 176.831818,651.714050   C162.417938,651.714050 148.007721,651.714050 132.998795,651.714050   C132.998795,617.007507 132.998795,582.253723 132.998795,547.000000  z"/>
<path fill="#EAEAEA" opacity="1.000000" stroke="none" d=" M263.015411,500.000000   C263.015411,477.227783 263.015411,454.955536 263.015411,432.415710   C277.755035,432.415710 292.004913,432.415710 306.630676,432.415710   C306.630676,505.434235 306.630676,578.437195 306.630676,651.721985   C292.362701,651.721985 277.965576,651.721985 263.015411,651.721985   C263.015411,601.295349 263.015411,550.897644 263.015411,500.000000  z"/>
<path fill="#E9E9E9" opacity="1.000000" stroke="none" d=" M194.846222,538.737427   C197.863571,523.444824 210.188644,514.660645 224.683014,517.104248   C237.852905,519.324524 247.069778,532.161011 245.206833,545.688049   C243.348694,559.180115 230.910645,569.153259 217.731522,567.718628   C203.263687,566.143738 193.784821,554.336182 194.846222,538.737427  z"/>
<path fill="#E9E9E9" opacity="1.000000" stroke="none" d=" M954.429565,445.522186   C951.104675,440.650146 951.247803,435.852814 954.817932,432.501373   C957.904297,429.604065 963.111206,429.223755 966.337219,431.660034   C970.187256,434.567535 970.835022,439.711517 967.624268,445.196167   C967.104797,445.135254 966.994690,445.007843 967.006226,444.492065   C968.966980,440.360718 969.315308,436.331329 966.066162,433.601624   C964.285156,432.105347 960.794739,431.551483 958.415833,432.086731   C953.479492,433.197388 952.335999,438.539154 954.945251,445.041290   C954.772583,445.200775 954.429565,445.522186 954.429565,445.522186  z"/>
<path fill="#E9E9E9" opacity="1.000000" stroke="none" d=" M966.489868,446.522186   C962.503357,449.172729 958.642700,448.808380 954.656006,445.779846   C954.429565,445.522186 954.772583,445.200775 955.206482,445.085266   C955.955322,445.125946 956.270264,445.282135 956.858276,445.695862   C960.065247,445.948761 962.999084,445.944153 966.072021,446.085388   C966.211060,446.231201 966.489868,446.522186 966.489868,446.522186  z"/>
<path fill="#E9E9E9" opacity="1.000000" stroke="none" d=" M967.369751,445.462341   C967.371216,445.933990 967.164734,446.156616 966.697510,446.426025   C966.489868,446.522186 966.211060,446.231201 966.045349,445.838409   C965.879639,445.445618 965.976746,444.958405 966.201660,444.914825   C966.426514,444.871246 966.884521,444.880463 966.884521,444.880463   C966.994690,445.007843 967.104797,445.135254 967.369751,445.462341  z"/>
<path fill="#1B1B1B" opacity="1.000000" stroke="none" d=" M612.999878,525.722046   C599.208191,525.722046 585.916504,525.722046 572.252075,525.722046   C572.252075,507.375031 572.252075,489.366364 572.252075,470.862183   C575.761719,470.862183 579.211914,470.862122 582.662170,470.862152   C599.474426,470.862152 616.287048,470.789398 633.098755,470.883636   C648.611633,470.970581 659.348572,481.744141 659.635498,497.293243   C659.937439,513.653564 649.713196,525.068298 633.972595,525.663025   C627.157349,525.920593 620.324646,525.716492 612.999878,525.722046  z"/>
<path fill="#1D1D1D" opacity="1.000000" stroke="none" d=" M862.250244,496.471191   C864.804443,502.336334 867.273743,508.459839 869.450073,514.685791   C875.315735,531.465881 881.059692,548.288574 886.839355,565.098633   C887.206848,566.167419 887.465881,567.273438 887.864075,568.674194   C871.027222,568.674194 854.507019,568.674194 837.269836,568.674194   C845.618958,544.431946 853.825317,520.604126 862.250244,496.471191  z"/>
<path fill="#1D1D1D" opacity="1.000000" stroke="none" d=" M967.006226,444.492065   C966.884521,444.880463 966.426514,444.871246 966.228149,444.949707   C966.029846,445.028198 966.085327,445.096161 965.955444,444.706360   C965.699097,442.035614 965.848816,439.690979 965.343201,437.497375   C965.037415,436.171204 963.940979,434.435303 962.796631,434.034302   C961.113037,433.444366 959.069397,433.882172 957.161316,433.882172   C957.161316,437.913300 957.161316,441.370270 957.016846,444.979645   C956.872437,445.132050 956.585144,445.438354 956.585144,445.438354   C956.270264,445.282135 955.955322,445.125946 955.379150,444.925781   C952.335999,438.539154 953.479492,433.197388 958.415833,432.086731   C960.794739,431.551483 964.285156,432.105347 966.066162,433.601624   C969.315308,436.331329 968.966980,440.360718 967.006226,444.492065  z"/>
<path fill="#1D1D1D" opacity="1.000000" stroke="none" d=" M966.003296,444.993286   C965.976746,444.958405 965.879639,445.445618 965.906311,445.692566   C962.999084,445.944153 960.065247,445.948761 956.858276,445.695862   C956.585144,445.438354 956.872437,445.132050 957.390991,444.941376   C958.670105,443.508881 959.430542,442.267090 960.397034,440.688965   C962.306580,442.168488 964.195984,443.632324 966.085327,445.096191   C966.085327,445.096161 966.029846,445.028198 966.003296,444.993286  z"/>
<path fill="#E9E9E9" opacity="1.000000" stroke="none" d=" M965.955444,444.706390   C964.195984,443.632324 962.306580,442.168488 960.397034,440.688965   C959.430542,442.267090 958.670105,443.508881 957.535461,444.788971   C957.161316,441.370270 957.161316,437.913300 957.161316,433.882172   C959.069397,433.882172 961.113037,433.444366 962.796631,434.034302   C963.940979,434.435303 965.037415,436.171204 965.343201,437.497375   C965.848816,439.690979 965.699097,442.035614 965.955444,444.706390  z"/>
</svg>